{"title":"4084 Chaalis Chaurassi (2012) 1CD DVD Rip Xvid MP3 Subs","uid":7187719,"size":729026140,"categoryP":"video","categoryS":"movies","magnet":"?xt=urn:btih:1615797e00f007e436b942b057e5bb0b8d54a2b6&amp;dn=4084+Chaalis+Chaurassi+%282012%29+1CD+DVD+Rip+Xvid+MP3+Subs&amp;tr=udp%3A%2F%2Ftracker.openbittorrent.com%3A80&amp;tr=udp%3A%2F%2Fopen.demonii.com%3A1337&amp;tr=udp%3A%2F%2Ftracker.coppersurfer.tk%3A6969&amp;tr=udp%3A%2F%2Fexodus.desync.com%3A6969","seeders":0,"leechers":1,"uploader":"shaan666","files":-1,"time":1334505462,"description":"4084 Chaalis Chaurassi (2012) 1CD DVD Rip Xvid MP3 Subs\n &lt;a href=&quot;\nhttp://www.shotpix.com/images/64935691367635141458.jpg&quot; rel=&quot;nofollow&quot; target=&quot;_NEW&quot;&gt;\nhttp://www.shotpix.com/images/64935691367635141458.jpg&lt;/a&gt;\n\n\nINFO\n\n[CODE]General\nComplete name                            : 4084 Chaalis Chaurassi (2012) 1CD DVD Rip Xvid MP3 Subs BWTV4084 Chaalis Chaurassi (2012) 1CD DVD Rip Xvid MP3 Subs BWTV.avi\nFormat                                   : AVI\nFormat/Info                              : Audio Video Interleave\nFile size                                : 695 MiB\nDuration                                 : 1h 55mn\nOverall bit rate                         : 842 Kbps\nWriting library                          : VirtualDub build 32661/release\n\nVideo\nID                                       : 0\nFormat                                   : MPEG-4 Visual\nFormat profile                           : Advanced Simple@L5\nFormat settings, BVOP                    : 2\nFormat settings, QPel                    : Yes\nFormat settings, GMC                     : No warppoints\nFormat settings, Matrix                  : Default (H.263)\nCodec ID                                 : XVID\nCodec ID/Hint                            : XviD\nDuration                                 : 1h 55mn\nBit rate                                 : 736 Kbps\nWidth                                    : 640 pixels\nHeight                                   : 288 pixels\nDisplay aspect ratio                     : 2.222\nFrame rate                               : 25.000 fps\nColor space                              : YUV\nChroma subsampling                       : 4:2:0\nBit depth                                : 8 bits\nScan type                                : Progressive\nCompression mode                         : Lossy\nBits/(Pixel*Frame)                       : 0.160\nStream size                              : 608 MiB (87%)\nWriting library                          : XviD 1.2.1 (UTC 2008-12-04)\n\nAudio\nID                                       : 1\nFormat                                   : MPEG Audio\nFormat version                           : Version 1\nFormat profile                           : Layer 3\nMode                                     : Joint stereo\nMode extension                           : MS Stereo\nCodec ID                                 : 55\nCodec ID/Hint                            : MP3\nDuration                                 : 1h 55mn\nBit rate mode                            : Constant\nBit rate                                 : 96.0 Kbps\nChannel(s)                               : 2 channels\nSampling rate                            : 32.0 KHz\nCompression mode                         : Lossy\nStream size                              : 79.3 MiB (11%)\nAlignment                                : Split accross interleaves\nInterleave, duration                     : 40 ms (1.00 video frame)\nInterleave, preload duration             : 500 ms\nWriting library                          : LAME3.99r\nEncoding settings                        : -m j -V 4 -q 2 -lowpass 15.1 -b 96[/CODE]","torrent":{"xt":"urn:btih:1615797e00f007e436b942b057e5bb0b8d54a2b6","amp;dn":"4084+Chaalis+Chaurassi+%282012%29+1CD+DVD+Rip+Xvid+MP3+Subs","amp;tr":["udp%3A%2F%2Ftracker.openbittorrent.com%3A80","udp%3A%2F%2Fopen.demonii.com%3A1337","udp%3A%2F%2Ftracker.coppersurfer.tk%3A6969","udp%3A%2F%2Fexodus.desync.com%3A6969"],"infoHash":"1615797e00f007e436b942b057e5bb0b8d54a2b6","infoHashBuffer":{"type":"Buffer","data":[22,21,121,126,0,240,7,228,54,185,66,176,87,229,187,11,141,84,162,182]},"announce":[],"urlList":[]}}